<svg height="480pt" viewBox="0 0 480 480" width="480pt" xmlns="http://www.w3.org/2000/svg" xmlns:xlink="http://www.w3.org/1999/xlink"><linearGradient id="linear0" gradientUnits="userSpaceOnUse" x1="240" x2="240" y1="480" y2="0"><stop offset="0" stop-color="#12c2e9"/><stop offset=".056" stop-color="#19bfe9"/><stop offset=".137" stop-color="#2db6ea"/><stop offset=".235" stop-color="#4da7ea"/><stop offset=".344" stop-color="#7993eb"/><stop offset=".462" stop-color="#b279ed"/><stop offset=".497" stop-color="#c471ed"/><stop offset="1" stop-color="#f64f59"/></linearGradient><path d="m360 240c0 4.417969-3.582031 8-8 8h-104v104c0 4.417969-3.582031 8-8 8s-8-3.582031-8-8v-104h-104c-4.417969 0-8-3.582031-8-8s3.582031-8 8-8h104v-104c0-4.417969 3.582031-8 8-8s8 3.582031 8 8v104h104c4.417969 0 8 3.582031 8 8zm120 0c0 132.546875-107.453125 240-240 240s-240-107.453125-240-240 107.453125-240 240-240c132.484375.148438 239.851562 107.515625 240 240zm-16 0c0-123.710938-100.289062-224-224-224s-224 100.289062-224 224 100.289062 224 224 224c123.652344-.140625 223.859375-100.347656 224-224zm0 0" fill="url(#linear0)"/></svg>