<svg height="512pt" viewBox="0 0 512 512" width="512pt" xmlns="http://www.w3.org/2000/svg"><path d="m416 512h-320c-53.023438 0-96-42.976562-96-96v-320c0-53.023438 42.976562-96 96-96h320c53.023438 0 96 42.976562 96 96v320c0 53.023438-42.976562 96-96 96zm0 0" fill="#e3f8fa"/><path d="m354.671875 128h-197.34375c-16.175781 0-29.328125 13.152344-29.328125 29.328125v197.328125c0 16.191406 13.152344 29.34375 29.328125 29.34375h197.328125c16.191406 0 29.34375-13.152344 29.34375-29.328125v-197.34375c0-16.175781-13.152344-29.328125-29.328125-29.328125zm-42.671875 138.671875h-45.328125v45.328125c0 5.886719-4.769531 10.671875-10.671875 10.671875-5.886719 0-10.671875-4.785156-10.671875-10.671875v-45.328125h-45.328125c-5.886719 0-10.671875-4.785156-10.671875-10.671875s4.769531-10.671875 10.671875-10.671875h45.328125v-45.328125c0-5.886719 4.769531-10.671875 10.671875-10.671875 5.886719 0 10.671875 4.785156 10.671875 10.671875v45.328125h45.328125c5.886719 0 10.671875 4.785156 10.671875 10.671875s-4.769531 10.671875-10.671875 10.671875zm0 0" fill="#26c6da"/></svg>