<svg height="512" viewBox="0 0 54 60" width="512" xmlns="http://www.w3.org/2000/svg"><g id="Page-1" fill="none" fill-rule="evenodd"><g id="008---To-Do-List" fill-rule="nonzero"><g id="Icons" transform="translate(1 1)"><rect id="Rectangle-path" fill="#a0522d" height="58" rx="3" width="52"/><path id="Shape" d="m49 0h-3c1.6568542 0 3 1.34314575 3 3v52c0 1.6568542-1.3431458 3-3 3h3c1.6568542 0 3-1.3431458 3-3v-52c0-1.65685425-1.3431458-3-3-3z" fill="#783e22"/><path id="Shape" d="m20 13h-6.94c-.9171798.0033108-1.7180765-.6200676-1.94-1.51l-.39-1.58-3.73-2.91h-2c-.55228475 0-1 .44771525-1 1v44.96c.03652998.60588.55374124 1.0695867 1.16 1.04h41.68c.6062588.0295867 1.12347-.43412 1.16-1.04v-44.96c0-.55228475-.4477153-1-1-1h-2l-3.73 2.91-.39 1.58c-.2219235.8899324-1.0228202 1.5133108-1.94 1.51z" fill="#ffdc00"/><path id="Shape" d="m47 7h-2l-.338.264c.21277.1856822.3358129.45360988.338.736v44.96c-.03653.60588-.5537412 1.0695867-1.16 1.04h3c.6062588.0295867 1.12347-.43412 1.16-1.04v-44.96c0-.55228475-.4477153-1-1-1z" fill="#fec108"/><g fill="#e91e63"><path id="Shape" d="m15 18h-4c-.5522847 0-1 .4477153-1 1s.4477153 1 1 1h1v6c0 .5522847.4477153 1 1 1s1-.4477153 1-1v-6h1c.5522847 0 1-.4477153 1-1s-.4477153-1-1-1z"/><path id="Shape" d="m19.5 18c-1.9329966 0-3.5 1.5670034-3.5 3.5v2c0 1.9329966 1.5670034 3.5 3.5 3.5s3.5-1.5670034 3.5-3.5v-2c0-1.9329966-1.5670034-3.5-3.5-3.5zm1.5 5.5c0 .8284271-.6715729 1.4999999-1.5 1.4999999s-1.5-.6715728-1.5-1.4999999v-2c0-.8284271.6715729-1.5 1.5-1.5s1.5.6715729 1.5 1.5z"/><path id="Shape" d="m38.5 18c-1.9329966 0-3.5 1.5670034-3.5 3.5v2c0 1.9329966 1.5670034 3.5 3.5 3.5s3.5-1.5670034 3.5-3.5v-2c0-1.9329966-1.5670034-3.5-3.5-3.5zm1.5 5.5c0 .8284271-.6715729 1.5-1.5 1.5s-1.5-.6715729-1.5-1.5v-2c0-.8284271.6715729-1.5 1.5-1.5s1.5.6715729 1.5 1.5z"/><path id="Shape" d="m30 18h-1c-1.1045695 0-2 .8954305-2 2v5c0 1.1045695.8954305 2 2 2h1c2.209139 0 4-1.790861 4-4v-1c0-2.209139-1.790861-4-4-4zm2 5c0 1.1045695-.8954305 2-2 2h-1v-5h1c1.1045695 0 2 .8954305 2 2z"/></g><circle id="Oval" cx="10" cy="7" fill="#7f8e94" r="3"/><circle id="Oval" cx="42" cy="7" fill="#7f8e94" r="3"/><path id="Shape" d="m42 4c-.5281059.00274535-1.0459153.14635115-1.5.416.9273539.5298262 1.4996803 1.5159639 1.4996803 2.584s-.5723264 2.0541738-1.4996803 2.584c.4540847.26964885.9718941.41325465 1.5.416 1.6568542 0 3-1.34314575 3-3s-1.3431458-3-3-3z" fill="#545c60"/><path id="Shape" d="m30 15h-8c-1.1045695 0-2-.8954305-2-2s.8954305-2 2-2h8c1.1045695 0 2 .8954305 2 2s-.8954305 2-2 2z" fill="#7f8e94"/><path id="Shape" d="m30 11h-3c1.1045695 0 2 .8954305 2 2s-.8954305 2-2 2h3c1.1045695 0 2-.8954305 2-2s-.8954305-2-2-2z" fill="#545c60"/></g><g id="Layer_2" fill="#000"><path id="Shape" d="m4 60h46c2.209139 0 4-1.790861 4-4v-52c0-2.209139-1.790861-4-4-4h-46c-2.209139 0-4 1.790861-4 4v52c0 2.209139 1.790861 4 4 4zm-2-56c0-1.1045695.8954305-2 2-2h46c1.1045695 0 2 .8954305 2 2v52c0 1.1045695-.8954305 2-2 2h-46c-1.1045695 0-2-.8954305-2-2z"/><path id="Shape" d="m6.16 56h41.68c.5570178.0161423 1.0976125-.189769 1.5027417-.5723911.4051293-.3826221.6415707-.9105781.6572583-1.4676089v-44.96c0-1.1045695-.8954305-2-2-2h-1.142c-.4510843-1.77084165-2.0472545-3.00910239-3.8746424-3.0058308-1.8273879.0032716-3.4191141 1.24723966-3.8638549 3.01968511-.4447407 1.77244546.3711309 3.62052619 1.9804973 4.48614569l-.186.754c-.111539.4434515-.5117475.7532104-.969.75h-6.129c-.4209081-1.1959285-1.5481774-1.9981471-2.816-2.004h-8c-1.2667854.0052514-2.3937454.8056491-2.816 2h-6.124c-.4569614.0033243-.857072-.3059459-.969-.749l-.186-.755c1.6050299-.8683793 2.4161125-2.71521386 1.9695263-4.48461052-.4465861-1.76939666-2.0369513-3.01011881-3.8618339-3.01280674-1.82488255-.00268792-3.4188958 1.23334386-3.8706924 3.00141726h-1.142c-1.1045695 0-2 .8954305-2 2v32c0 .5522847.44771525 1 1 1s1-.4477153 1-1v-32h1.142c.45162156 1.7496175 2.02015449 2.9791965 3.827 3l.18.733c.3321944 1.3360567 1.5342743 2.2722007 2.911 2.267h6.124c.4222546 1.1943509 1.5492146 1.9947486 2.816 2h8c1.2667854-.0052514 2.3937454-.8056491 2.816-2h6.124c1.3778941.0047482 2.580367-.9333541 2.911-2.271l.18-.732c1.8068455-.0208035 3.3753784-1.2503825 3.827-3h1.142l.005 44.935c-.0419032.046429-.1025515.0714235-.165.068h-41.68c-.05567733-.0010219-.11039207-.0147006-.16-.04v-5.96c0-.5522847-.44771525-1-1-1s-1 .4477153-1 1v5.96c.01568762.5570308.25212899 1.0849868.65725827 1.4676089s.94572393.5885334 1.50274173.5723911zm2.84-48c0-1.1045695.8954305-2 2-2s2 .8954305 2 2-.8954305 2-2 2-2-.8954305-2-2zm22 7h-8c-.5522847 0-1-.4477153-1-1s.4477153-1 1-1h8c.5522847 0 1 .4477153 1 1s-.4477153 1-1 1zm12-5c-1.1045695 0-2-.8954305-2-2s.8954305-2 2-2 2 .8954305 2 2c0 .53043298-.2107137 1.03914081-.5857864 1.41421356-.3750728.37507276-.8837806.58578644-1.4142136.58578644z"/><path id="Shape" d="m23 8h8c.5522847 0 1-.44771525 1-1s-.4477153-1-1-1h-8c-.5522847 0-1 .44771525-1 1s.4477153 1 1 1z"/><path id="Shape" d="m18 31c0 .5522847.4477153 1 1 1h24c.5522847 0 1-.4477153 1-1s-.4477153-1-1-1h-24c-.5522847 0-1 .4477153-1 1z"/><path id="Shape" d="m43 36h-24c-.5522847 0-1 .4477153-1 1s.4477153 1 1 1h24c.5522847 0 1-.4477153 1-1s-.4477153-1-1-1z"/><path id="Shape" d="m43 42h-24c-.5522847 0-1 .4477153-1 1s.4477153 1 1 1h24c.5522847 0 1-.4477153 1-1s-.4477153-1-1-1z"/><path id="Shape" d="m43 48h-24c-.5522847 0-1 .4477153-1 1s.4477153 1 1 1h24c.5522847 0 1-.4477153 1-1s-.4477153-1-1-1z"/><path id="Shape" d="m10 31c0 .5522847.4477153 1 1 1h4c.5522847 0 1-.4477153 1-1s-.4477153-1-1-1h-4c-.5522847 0-1 .4477153-1 1z"/><path id="Shape" d="m11 38h4c.5522847 0 1-.4477153 1-1s-.4477153-1-1-1h-4c-.5522847 0-1 .4477153-1 1s.4477153 1 1 1z"/><path id="Shape" d="m11 44h4c.5522847 0 1-.4477153 1-1s-.4477153-1-1-1h-4c-.5522847 0-1 .4477153-1 1s.4477153 1 1 1z"/><path id="Shape" d="m11 50h4c.5522847 0 1-.4477153 1-1s-.4477153-1-1-1h-4c-.5522847 0-1 .4477153-1 1s.4477153 1 1 1z"/></g></g></g></svg>