<svg id="Capa_1" enable-background="new 0 0 512 512" height="512" viewBox="0 0 512 512" width="512" xmlns="http://www.w3.org/2000/svg" xmlns:xlink="http://www.w3.org/1999/xlink"><linearGradient id="SVGID_1_" gradientUnits="userSpaceOnUse" x1="256" x2="256" y1="512" y2="0"><stop offset="0" stop-color="#ff3786"/><stop offset="1" stop-color="#ffa78c"/></linearGradient><linearGradient id="SVGID_2_" gradientUnits="userSpaceOnUse" x1="256" x2="256" y1="442" y2="72"><stop offset="0" stop-color="#ffc8d2"/><stop offset="1" stop-color="#fff5f6"/></linearGradient><g><path d="m331 132v-87c0-24.813-20.187-45-45-45h-60c-24.813 0-45 20.187-45 45v87h-91.341l28.26 329.697c2.438 28.451 26.244 50.303 54.799 50.303h166.564c28.555 0 52.36-21.852 54.799-50.303l28.26-329.697zm-120-87c0-8.271 6.729-15 15-15h60c8.271 0 15 6.729 15 15v87h-90z" fill="url(#SVGID_1_)"/><path d="m328.357 441.986c-8.277-.355-14.699-7.352-14.344-15.629l9.001-210c.355-8.277 7.352-14.699 15.629-14.344 8.277.355 14.698 7.352 14.344 15.629l-9.001 210c-.355 8.277-7.352 14.699-15.629 14.344zm-57.357-14.986v-210c0-8.284-6.716-15-15-15-8.284 0-15 6.716-15 15v210c0 8.284 6.716 15 15 15 8.284 0 15-6.716 15-15zm-87.357 14.986c8.277-.355 14.699-7.352 14.344-15.629l-9.001-210c-.355-8.277-7.352-14.699-15.629-14.344-8.277.355-14.698 7.352-14.344 15.629l9.001 210c.355 8.277 7.352 14.699 15.629 14.344zm229.857-369.986h-315c-20.711 0-37.5 16.789-37.5 37.5 0 20.711 16.789 37.5 37.5 37.5h315c20.711 0 37.5-16.789 37.5-37.5 0-20.711-16.789-37.5-37.5-37.5z" fill="url(#SVGID_2_)"/></g></svg>