<svg id="Capa_1" enable-background="new 0 0 512 512" height="512" viewBox="0 0 512 512" width="512" xmlns="http://www.w3.org/2000/svg" xmlns:xlink="http://www.w3.org/1999/xlink"><linearGradient id="SVGID_1_" gradientTransform="matrix(1 0 0 -1 0 511.625)" gradientUnits="userSpaceOnUse" x1="256" x2="256" y1=".437" y2="510.812"><stop offset="0" stop-color="#a93aff"/><stop offset="1" stop-color="#ff81ff"/></linearGradient><g><path d="m256 .812c-141.385 0-256 114.615-256 256 12.55 339.213 499.501 339.122 512-.003 0-141.382-114.615-255.997-256-255.997zm0 482c-124.816 0-226-101.184-226-226 11.079-299.462 440.966-299.381 452 .003 0 124.813-101.184 225.997-226 225.997zm109.602-137.612c13.536 14.58-6.649 34.744-21.213 21.213l-88.389-88.388-88.388 88.388c-14.58 13.536-34.744-6.649-21.213-21.213l88.388-88.388-88.388-88.388c-13.536-14.58 6.649-34.744 21.213-21.213l88.388 88.387 88.388-88.388c14.58-13.536 34.744 6.649 21.213 21.213l-88.388 88.388z" fill="url(#SVGID_1_)"/></g></svg>